<mxfile host="app.diagrams.net" modified="2021-06-18T10:47:47.599Z" agent="5.0 (Macintosh; Intel Mac OS X 10_15_6) AppleWebKit/605.1.15 (KHTML, like Gecko) Version/14.0.3 Safari/605.1.15" etag="e__uip7WyYYhZzLYiLW-" version="14.7.0" type="github">
  <diagram id="mQvSKPtjcyFuUExqqYhi" name="Page-1">
    <mxGraphModel dx="946" dy="543" grid="1" gridSize="10" guides="1" tooltips="1" connect="1" arrows="1" fold="1" page="1" pageScale="1" pageWidth="827" pageHeight="1169" math="0" shadow="0">
      <root>
        <mxCell id="0" />
        <mxCell id="1" parent="0" />
        <mxCell id="H5b9oZh15vuoIAr32jvK-44" value="" style="shape=ext;double=1;rounded=0;whiteSpace=wrap;html=1;labelBackgroundColor=none;fontColor=#666666;" vertex="1" parent="1">
          <mxGeometry x="80" y="60" width="520" height="560" as="geometry" />
        </mxCell>
        <mxCell id="H5b9oZh15vuoIAr32jvK-6" value="加解密(几维)" style="shape=umlLifeline;perimeter=lifelinePerimeter;whiteSpace=wrap;html=1;container=1;collapsible=0;recursiveResize=0;outlineConnect=0;rounded=1;shadow=0;comic=0;labelBackgroundColor=none;strokeWidth=1;fontFamily=Verdana;fontSize=12;align=center;" vertex="1" parent="1">
          <mxGeometry x="240" y="80" width="100" height="520" as="geometry" />
        </mxCell>
        <mxCell id="H5b9oZh15vuoIAr32jvK-7" value="SDK(格尔)" style="shape=umlLifeline;perimeter=lifelinePerimeter;whiteSpace=wrap;html=1;container=1;collapsible=0;recursiveResize=0;outlineConnect=0;rounded=1;shadow=0;comic=0;labelBackgroundColor=none;strokeWidth=1;fontFamily=Verdana;fontSize=12;align=center;" vertex="1" parent="1">
          <mxGeometry x="400" y="80" width="100" height="520" as="geometry" />
        </mxCell>
        <mxCell id="H5b9oZh15vuoIAr32jvK-8" value="" style="html=1;points=[];perimeter=orthogonalPerimeter;rounded=0;shadow=0;comic=0;labelBackgroundColor=none;strokeWidth=1;fontFamily=Verdana;fontSize=12;align=center;" vertex="1" parent="H5b9oZh15vuoIAr32jvK-7">
          <mxGeometry x="45" y="100" width="10" height="390" as="geometry" />
        </mxCell>
        <mxCell id="H5b9oZh15vuoIAr32jvK-10" value="APP(网易)" style="shape=umlLifeline;perimeter=lifelinePerimeter;whiteSpace=wrap;html=1;container=1;collapsible=0;recursiveResize=0;outlineConnect=0;rounded=1;shadow=0;comic=0;labelBackgroundColor=none;strokeWidth=1;fontFamily=Verdana;fontSize=12;align=center;" vertex="1" parent="1">
          <mxGeometry x="100" y="80" width="100" height="520" as="geometry" />
        </mxCell>
        <mxCell id="H5b9oZh15vuoIAr32jvK-11" value="" style="html=1;points=[];perimeter=orthogonalPerimeter;rounded=0;shadow=0;comic=0;labelBackgroundColor=none;strokeWidth=1;fontFamily=Verdana;fontSize=12;align=center;" vertex="1" parent="H5b9oZh15vuoIAr32jvK-10">
          <mxGeometry x="45" y="100" width="10" height="390" as="geometry" />
        </mxCell>
        <mxCell id="H5b9oZh15vuoIAr32jvK-16" value="初始化账号" style="html=1;verticalAlign=bottom;endArrow=block;entryX=-0.1;entryY=0;labelBackgroundColor=none;fontFamily=Verdana;fontSize=12;edgeStyle=elbowEdgeStyle;elbow=vertical;entryDx=0;entryDy=0;entryPerimeter=0;" edge="1" parent="1" source="H5b9oZh15vuoIAr32jvK-11" target="H5b9oZh15vuoIAr32jvK-8">
          <mxGeometry relative="1" as="geometry">
            <mxPoint x="220" y="190" as="sourcePoint" />
            <mxPoint x="285" y="180" as="targetPoint" />
          </mxGeometry>
        </mxCell>
        <mxCell id="H5b9oZh15vuoIAr32jvK-20" value="" style="html=1;points=[];perimeter=orthogonalPerimeter;rounded=0;shadow=0;comic=0;labelBackgroundColor=none;strokeWidth=1;fontFamily=Verdana;fontSize=12;align=center;" vertex="1" parent="1">
          <mxGeometry x="450" y="200" width="10" height="50" as="geometry" />
        </mxCell>
        <mxCell id="H5b9oZh15vuoIAr32jvK-21" value="生成密钥对" style="html=1;verticalAlign=bottom;endArrow=block;labelBackgroundColor=none;fontFamily=Verdana;fontSize=12;elbow=vertical;edgeStyle=orthogonalEdgeStyle;curved=1;entryX=1;entryY=0.286;entryPerimeter=0;" edge="1" parent="1">
          <mxGeometry relative="1" as="geometry">
            <mxPoint x="459.3800000000001" y="226" as="sourcePoint" />
            <mxPoint x="454" y="263.96000000000004" as="targetPoint" />
            <Array as="points">
              <mxPoint x="504" y="225.94" />
              <mxPoint x="504" y="263.94" />
            </Array>
          </mxGeometry>
        </mxCell>
        <mxCell id="H5b9oZh15vuoIAr32jvK-22" style="edgeStyle=orthogonalEdgeStyle;rounded=0;orthogonalLoop=1;jettySize=auto;html=1;" edge="1" parent="1">
          <mxGeometry relative="1" as="geometry">
            <mxPoint x="156" y="265" as="targetPoint" />
            <Array as="points">
              <mxPoint x="370" y="264" />
              <mxPoint x="370" y="264" />
            </Array>
            <mxPoint x="445" y="264" as="sourcePoint" />
          </mxGeometry>
        </mxCell>
        <mxCell id="H5b9oZh15vuoIAr32jvK-23" value="账号初始化成功" style="edgeLabel;html=1;align=center;verticalAlign=middle;resizable=0;points=[];" vertex="1" connectable="0" parent="H5b9oZh15vuoIAr32jvK-22">
          <mxGeometry x="0.0381" y="-2" relative="1" as="geometry">
            <mxPoint x="5" y="-7" as="offset" />
          </mxGeometry>
        </mxCell>
        <mxCell id="H5b9oZh15vuoIAr32jvK-24" value="" style="html=1;points=[];perimeter=orthogonalPerimeter;rounded=0;shadow=0;comic=0;labelBackgroundColor=none;strokeWidth=1;fontFamily=Verdana;fontSize=12;align=center;" vertex="1" parent="1">
          <mxGeometry x="285" y="300" width="10" height="130" as="geometry" />
        </mxCell>
        <mxCell id="H5b9oZh15vuoIAr32jvK-25" style="edgeStyle=orthogonalEdgeStyle;rounded=0;orthogonalLoop=1;jettySize=auto;html=1;" edge="1" parent="1">
          <mxGeometry relative="1" as="geometry">
            <mxPoint x="282" y="319" as="targetPoint" />
            <Array as="points">
              <mxPoint x="190" y="319" />
              <mxPoint x="190" y="319" />
            </Array>
            <mxPoint x="155" y="319" as="sourcePoint" />
          </mxGeometry>
        </mxCell>
        <mxCell id="H5b9oZh15vuoIAr32jvK-26" value="初始化加解密模块&lt;br&gt;(创建密钥)" style="edgeLabel;html=1;align=center;verticalAlign=middle;resizable=0;points=[];" vertex="1" connectable="0" parent="H5b9oZh15vuoIAr32jvK-25">
          <mxGeometry x="0.0387" y="3" relative="1" as="geometry">
            <mxPoint x="-7" y="-13" as="offset" />
          </mxGeometry>
        </mxCell>
        <mxCell id="H5b9oZh15vuoIAr32jvK-27" value="" style="html=1;points=[];perimeter=orthogonalPerimeter;rounded=0;shadow=0;comic=0;labelBackgroundColor=none;strokeWidth=1;fontFamily=Verdana;fontSize=12;align=center;" vertex="1" parent="1">
          <mxGeometry x="450" y="320" width="10" height="70" as="geometry" />
        </mxCell>
        <mxCell id="H5b9oZh15vuoIAr32jvK-28" value="公钥加密密钥保存" style="html=1;verticalAlign=bottom;endArrow=block;labelBackgroundColor=none;fontFamily=Verdana;fontSize=12;elbow=vertical;edgeStyle=orthogonalEdgeStyle;curved=1;entryX=1;entryY=0.286;entryPerimeter=0;" edge="1" parent="1">
          <mxGeometry x="0.065" y="15" relative="1" as="geometry">
            <mxPoint x="460.3800000000001" y="364" as="sourcePoint" />
            <mxPoint x="455" y="401.96000000000004" as="targetPoint" />
            <Array as="points">
              <mxPoint x="505" y="363.94" />
              <mxPoint x="505" y="401.94000000000005" />
            </Array>
            <mxPoint as="offset" />
          </mxGeometry>
        </mxCell>
        <mxCell id="H5b9oZh15vuoIAr32jvK-29" value="" style="html=1;points=[];perimeter=orthogonalPerimeter;rounded=0;shadow=0;comic=0;labelBackgroundColor=none;strokeWidth=1;fontFamily=Verdana;fontSize=12;align=center;" vertex="1" parent="1">
          <mxGeometry x="290" y="320" width="10" height="70" as="geometry" />
        </mxCell>
        <mxCell id="H5b9oZh15vuoIAr32jvK-30" value="加密文件、数据" style="html=1;verticalAlign=bottom;endArrow=block;labelBackgroundColor=none;fontFamily=Verdana;fontSize=12;elbow=vertical;edgeStyle=orthogonalEdgeStyle;curved=1;entryX=1;entryY=0.286;entryPerimeter=0;" edge="1" parent="1">
          <mxGeometry relative="1" as="geometry">
            <mxPoint x="300.3800000000001" y="366" as="sourcePoint" />
            <mxPoint x="295" y="403.96000000000004" as="targetPoint" />
            <Array as="points">
              <mxPoint x="345" y="365.94000000000005" />
              <mxPoint x="345" y="403.94000000000005" />
            </Array>
          </mxGeometry>
        </mxCell>
        <mxCell id="H5b9oZh15vuoIAr32jvK-31" style="edgeStyle=orthogonalEdgeStyle;rounded=0;orthogonalLoop=1;jettySize=auto;html=1;entryX=0.1;entryY=0.356;entryDx=0;entryDy=0;entryPerimeter=0;" edge="1" parent="1" target="H5b9oZh15vuoIAr32jvK-8">
          <mxGeometry relative="1" as="geometry">
            <mxPoint x="280" y="319" as="sourcePoint" />
            <mxPoint x="430" y="319" as="targetPoint" />
            <Array as="points" />
          </mxGeometry>
        </mxCell>
        <mxCell id="H5b9oZh15vuoIAr32jvK-32" value="密钥保护" style="edgeLabel;html=1;align=center;verticalAlign=middle;resizable=0;points=[];" vertex="1" connectable="0" parent="H5b9oZh15vuoIAr32jvK-31">
          <mxGeometry x="0.0387" y="3" relative="1" as="geometry">
            <mxPoint y="-6" as="offset" />
          </mxGeometry>
        </mxCell>
        <mxCell id="H5b9oZh15vuoIAr32jvK-33" style="edgeStyle=orthogonalEdgeStyle;rounded=0;orthogonalLoop=1;jettySize=auto;html=1;entryX=-0.1;entryY=0.864;entryDx=0;entryDy=0;entryPerimeter=0;" edge="1" parent="1">
          <mxGeometry relative="1" as="geometry">
            <mxPoint x="158" y="465" as="sourcePoint" />
            <mxPoint x="444" y="465.15999999999985" as="targetPoint" />
            <Array as="points">
              <mxPoint x="370" y="465" />
              <mxPoint x="370" y="465" />
            </Array>
          </mxGeometry>
        </mxCell>
        <mxCell id="H5b9oZh15vuoIAr32jvK-34" value="获取密钥" style="edgeLabel;html=1;align=center;verticalAlign=middle;resizable=0;points=[];" vertex="1" connectable="0" parent="H5b9oZh15vuoIAr32jvK-33">
          <mxGeometry x="0.0387" y="3" relative="1" as="geometry">
            <mxPoint y="-6" as="offset" />
          </mxGeometry>
        </mxCell>
        <mxCell id="H5b9oZh15vuoIAr32jvK-35" style="edgeStyle=orthogonalEdgeStyle;rounded=0;orthogonalLoop=1;jettySize=auto;html=1;entryX=1.1;entryY=0.475;entryDx=0;entryDy=0;entryPerimeter=0;" edge="1" parent="1">
          <mxGeometry relative="1" as="geometry">
            <mxPoint x="445.5" y="507" as="sourcePoint" />
            <mxPoint x="156.5" y="507" as="targetPoint" />
            <Array as="points">
              <mxPoint x="370.5" y="507" />
              <mxPoint x="370.5" y="507" />
            </Array>
          </mxGeometry>
        </mxCell>
        <mxCell id="H5b9oZh15vuoIAr32jvK-36" value="返回密钥" style="edgeLabel;html=1;align=center;verticalAlign=middle;resizable=0;points=[];" vertex="1" connectable="0" parent="H5b9oZh15vuoIAr32jvK-35">
          <mxGeometry x="0.0381" y="-2" relative="1" as="geometry">
            <mxPoint x="5" y="-7" as="offset" />
          </mxGeometry>
        </mxCell>
        <mxCell id="H5b9oZh15vuoIAr32jvK-37" value="" style="html=1;points=[];perimeter=orthogonalPerimeter;rounded=0;shadow=0;comic=0;labelBackgroundColor=none;strokeWidth=1;fontFamily=Verdana;fontSize=12;align=center;" vertex="1" parent="1">
          <mxGeometry x="285" y="527" width="10" height="70" as="geometry" />
        </mxCell>
        <mxCell id="H5b9oZh15vuoIAr32jvK-38" style="edgeStyle=orthogonalEdgeStyle;rounded=0;orthogonalLoop=1;jettySize=auto;html=1;" edge="1" parent="1">
          <mxGeometry relative="1" as="geometry">
            <mxPoint x="156" y="541" as="sourcePoint" />
            <mxPoint x="283" y="541" as="targetPoint" />
            <Array as="points">
              <mxPoint x="191" y="541" />
              <mxPoint x="191" y="541" />
            </Array>
          </mxGeometry>
        </mxCell>
        <mxCell id="H5b9oZh15vuoIAr32jvK-39" value="初始化加解密模块&lt;br&gt;(从SDK获取的密钥)" style="edgeLabel;html=1;align=center;verticalAlign=middle;resizable=0;points=[];" vertex="1" connectable="0" parent="H5b9oZh15vuoIAr32jvK-38">
          <mxGeometry x="0.0387" y="3" relative="1" as="geometry">
            <mxPoint y="19" as="offset" />
          </mxGeometry>
        </mxCell>
        <mxCell id="H5b9oZh15vuoIAr32jvK-40" value="" style="html=1;points=[];perimeter=orthogonalPerimeter;rounded=0;shadow=0;comic=0;labelBackgroundColor=none;strokeWidth=1;fontFamily=Verdana;fontSize=12;align=center;" vertex="1" parent="1">
          <mxGeometry x="290" y="547" width="10" height="30" as="geometry" />
        </mxCell>
        <mxCell id="H5b9oZh15vuoIAr32jvK-41" value="加密文件、数据" style="html=1;verticalAlign=bottom;endArrow=block;labelBackgroundColor=none;fontFamily=Verdana;fontSize=12;elbow=vertical;edgeStyle=orthogonalEdgeStyle;curved=1;entryX=1;entryY=0.286;entryPerimeter=0;" edge="1" parent="1">
          <mxGeometry relative="1" as="geometry">
            <mxPoint x="300.3800000000001" y="555" as="sourcePoint" />
            <mxPoint x="295" y="592.96" as="targetPoint" />
            <Array as="points">
              <mxPoint x="345" y="554.94" />
              <mxPoint x="345" y="592.94" />
            </Array>
          </mxGeometry>
        </mxCell>
        <mxCell id="H5b9oZh15vuoIAr32jvK-43" value="" style="endArrow=none;dashed=1;html=1;fontColor=#666666;" edge="1" parent="1">
          <mxGeometry width="50" height="50" relative="1" as="geometry">
            <mxPoint x="80" y="440" as="sourcePoint" />
            <mxPoint x="600" y="440" as="targetPoint" />
          </mxGeometry>
        </mxCell>
        <mxCell id="H5b9oZh15vuoIAr32jvK-45" value="" style="html=1;points=[];perimeter=orthogonalPerimeter;rounded=0;shadow=0;comic=0;labelBackgroundColor=none;strokeWidth=1;fontFamily=Verdana;fontSize=12;align=center;" vertex="1" parent="1">
          <mxGeometry x="450" y="464" width="10" height="26" as="geometry" />
        </mxCell>
        <mxCell id="H5b9oZh15vuoIAr32jvK-46" value="私钥解密缓存的密钥" style="html=1;verticalAlign=bottom;endArrow=block;labelBackgroundColor=none;fontFamily=Verdana;fontSize=12;elbow=vertical;edgeStyle=orthogonalEdgeStyle;curved=1;entryX=1;entryY=0.286;entryPerimeter=0;" edge="1" parent="1">
          <mxGeometry x="0.065" y="15" relative="1" as="geometry">
            <mxPoint x="461.3800000000001" y="470" as="sourcePoint" />
            <mxPoint x="456" y="507.96000000000004" as="targetPoint" />
            <Array as="points">
              <mxPoint x="506" y="469.94" />
              <mxPoint x="506" y="507.94000000000005" />
            </Array>
            <mxPoint as="offset" />
          </mxGeometry>
        </mxCell>
      </root>
    </mxGraphModel>
  </diagram>
</mxfile>
